<svg xmlns="http://www.w3.org/2000/svg" width="16.006" height="16.006" viewBox="0 0 16.006 16.006">
  <path id="icons8-view-headline" d="M4.728,4A.728.728,0,0,0,4,4.728v2.91a.728.728,0,0,0,.728.728H19.278a.728.728,0,0,0,.728-.728V4.728A.728.728,0,0,0,19.278,4Zm0,5.82A.728.728,0,0,0,4,10.548v2.91a.728.728,0,0,0,.728.728H19.278a.728.728,0,0,0,.728-.728v-2.91a.728.728,0,0,0-.728-.728Zm0,5.82A.728.728,0,0,0,4,16.368v2.91a.728.728,0,0,0,.728.728H19.278a.728.728,0,0,0,.728-.728v-2.91a.728.728,0,0,0-.728-.728Z" transform="translate(-4 -4)" fill="#707070"/>
</svg>
